<svg
  xmlns="http://www.w3.org/2000/svg"
  width="356"
  height="54"
  viewBox="0 0 356 54"
  class="svg"
>
  <defs id="defs"></defs>

  <!-- HEART -->
  <g
    id="logo-heart"
    featurekey="symbolFeature-0"
    transform="matrix(1.0139788784313033,0,0,1.0139788784313033,-0.6992532424858635,-23.92888269386412)"
    fill="#51ADE2"
  >
    <g>
      <path
        d="M97.066,49.294H84.667c-0.919,0-1.745,0.56-2.085,1.412l-1.541,3.857l-8.542-21.378c-0.34-0.853-1.166-1.412-2.084-1.412   c-0.919,0-1.744,0.559-2.085,1.412l-6.436,16.109H53.06c2.014-5.625,2.044-11.745-0.042-16.634c-1.81-4.24-4.981-7.124-9.169-8.34   c-1.649-0.478-3.265-0.721-4.804-0.721c-5.719,0-9.354,3.237-11.41,5.988c-2.057-2.751-5.691-5.988-11.411-5.988   c-1.539,0-3.155,0.243-4.804,0.722c-4.188,1.215-7.358,4.1-9.168,8.339c-2.501,5.861-1.971,13.493,1.386,19.919   c5.525,10.572,21.96,22.861,22.657,23.38c0.398,0.295,0.868,0.442,1.339,0.442c0.471,0,0.941-0.147,1.339-0.442   c0.671-0.499,15.909-11.895,21.982-22.175h12.46c0.918,0,1.744-0.56,2.085-1.412l4.915-12.303l8.542,21.379   c0.341,0.853,1.166,1.412,2.085,1.412c0.918,0,1.743-0.56,2.085-1.412l3.061-7.664h10.879c1.239,0,2.244-1.005,2.244-2.245   S98.306,49.294,97.066,49.294z M27.634,71.325C23.635,68.192,11.806,58.516,7.617,50.5C4.91,45.316,4.425,39.006,6.381,34.422   c0.881-2.064,2.688-4.744,6.291-5.791c1.242-0.36,2.437-0.543,3.552-0.543c6.129,0,8.861,5.655,9.347,6.789   c0.354,0.825,1.166,1.361,2.064,1.361s1.71-0.536,2.064-1.361c0.485-1.134,3.217-6.789,9.346-6.789c1.115,0,2.31,0.183,3.551,0.543   c3.604,1.047,5.411,3.727,6.291,5.791c1.958,4.583,1.472,10.894-1.235,16.077C43.462,58.516,31.633,68.192,27.634,71.325z"
      ></path>
    </g>
  </g>

<!-- LINE -->
  <g
    id="logo-line"
    featurekey="textGroupContainer"
    transform="matrix(1,0,0,1,355,0)"
    fill="#f5f5f5"
  >
    <rect
      y="0"
      height="1"
      width="1"
      opacity="0"
    ></rect>
    <rect
      y="0"
      x="-235"
      width="3"
      height="54"
    ></rect>
  </g>

<!-- CARE2CARE -->
  <g
    id="logo-c2c"
    featurekey="vMvB0T-0"
    transform="matrix(1.876524644060619,0,0,1.876524644060619,136.64890007744646,2.703318099360226)"
    fill="#51ADE2"
  >
    <path
      d="M8.66 11.78 l0 -0.24 q0 -2.96 -2.2 -2.96 q-1.26 0 -1.82 1.15 t-0.56 3.39 q0 2.22 0.7 3.3 t2.04 1.08 q0.7 0 1.55 -0.33 t1.85 -1.05 q0.5 0.34 0.93 0.93 t0.53 1.13 q-0.46 0.44 -1.07 0.83 t-1.32 0.67 t-1.48 0.45 t-1.55 0.17 q-1.54 0 -2.6 -0.59 t-1.71 -1.57 t-0.94 -2.26 t-0.29 -2.66 q0 -1.8 0.45 -3.15 t1.22 -2.25 t1.81 -1.35 t2.22 -0.45 q1.2 0 2.18 0.32 t1.67 0.88 t1.06 1.32 t0.37 1.64 q0 1.78 -1.82 1.78 q-0.54 0 -1.22 -0.18 z M17.02 17.14 q-0.54 0 -0.8 -0.02 l-0.86 2.9 q-0.48 0.12 -1.34 0.12 q-0.96 0 -1.56 -0.22 l-0.1 -0.16 l4.4 -13.42 q0.78 -0.12 1.82 -0.12 q1.18 0 1.88 0.14 l4.32 13.44 q-0.7 0.38 -1.58 0.38 q-1.04 0 -1.46 -0.36 t-0.72 -1.38 l-0.38 -1.32 q-0.26 0.02 -0.78 0.02 l-2.84 0 z M16.96 14.620000000000001 l0.8 -0.02 l1.46 0 q0.1 0 0.35 0.01 t0.37 0.01 l-0.34 -1.24 q-0.48 -1.68 -1.1 -4.12 l-0.12 0 q-0.16 0.86 -0.96 3.82 z M36.26 10.56 q0 0.66 -0.2 1.25 t-0.53 1.06 t-0.78 0.82 t-0.93 0.53 q1.04 0.38 1.54 1.84 l0.6 1.7 q0.34 1 1 1.48 q-0.3 0.4 -0.9 0.67 t-1.32 0.27 t-1.12 -0.41 t-0.74 -1.43 l-0.72 -2.1 q-0.22 -0.6 -0.59 -0.92 t-1.11 -0.32 l-0.82 0 l0 5 q-0.64 0.12 -1.6 0.12 t-1.58 -0.12 l0 -13.56 l0.14 -0.14 q1.74 -0.04 2.93 -0.06 t1.87 -0.02 q1.1 0 2 0.27 t1.53 0.81 t0.98 1.36 t0.35 1.9 z M29.639999999999997 8.62 l0 3.92 q0.9 0 1.54 -0.03 t1.03 -0.24 t0.59 -0.59 t0.2 -1.1 q0 -1.94 -1.88 -1.94 l-0.83 0 t-0.65 -0.02 z M41.89999999999999 15.96 l-0.02 1.44 l0 0.02 q0.92 -0.04 1.48 -0.04 l4.64 0 q0 0.74 -0.06 1.14 q-0.24 1.54 -2.04 1.54 l-5.32 0 q-0.86 0 -1.35 -0.5 t-0.49 -1.36 l0 -11.72 l0.14 -0.14 l8.62 0 q0.12 0.58 0.12 1.26 t-0.28 1.42 l-5.46 0 l0.02 1.44 l0 1.4 q0.52 -0.02 1.36 -0.02 l3.06 0 q0.18 0.56 0.18 1.28 t-0.18 1.32 l-4.42 0 l0 1.52 z M58.459999999999994 17.36 q0 1.36 -0.41 2.01 t-1.57 0.65 l-5.96 0 q-0.38 -0.36 -0.73 -0.91 t-0.35 -0.99 q-0.02 -0.78 0.57 -1.65 t1.73 -1.91 l2.16 -1.96 q1.06 -0.96 1.06 -1.9 q0 -0.62 -0.37 -1.02 t-1.03 -0.4 q-0.64 0 -1.1 0.51 t-0.66 1.25 q-0.3 0 -0.63 -0.06 t-0.64 -0.18 t-0.56 -0.29 t-0.39 -0.39 q0.2 -0.74 0.6 -1.36 t0.96 -1.07 t1.29 -0.7 t1.61 -0.25 q0.86 0 1.61 0.29 t1.3 0.82 t0.86 1.28 t0.31 1.65 q-0.02 1.18 -0.62 2.1 t-1.76 1.88 l-1.44 1.2 q-1.38 1.18 -1.62 1.62 q0.86 -0.1 1.61 -0.16 t1.43 -0.06 l2.74 0 z M67.96 11.78 l0 -0.24 q0 -2.96 -2.2 -2.96 q-1.26 0 -1.82 1.15 t-0.56 3.39 q0 2.22 0.7 3.3 t2.04 1.08 q0.7 0 1.55 -0.33 t1.85 -1.05 q0.5 0.34 0.93 0.93 t0.53 1.13 q-0.46 0.44 -1.07 0.83 t-1.32 0.67 t-1.48 0.45 t-1.55 0.17 q-1.54 0 -2.6 -0.59 t-1.71 -1.57 t-0.94 -2.26 t-0.29 -2.66 q0 -1.8 0.45 -3.15 t1.22 -2.25 t1.81 -1.35 t2.22 -0.45 q1.2 0 2.18 0.32 t1.67 0.88 t1.06 1.32 t0.37 1.64 q0 1.78 -1.82 1.78 q-0.54 0 -1.22 -0.18 z M76.32 17.14 q-0.54 0 -0.8 -0.02 l-0.86 2.9 q-0.48 0.12 -1.34 0.12 q-0.96 0 -1.56 -0.22 l-0.1 -0.16 l4.4 -13.42 q0.78 -0.12 1.82 -0.12 q1.18 0 1.88 0.14 l4.32 13.44 q-0.7 0.38 -1.58 0.38 q-1.04 0 -1.46 -0.36 t-0.72 -1.38 l-0.38 -1.32 q-0.26 0.02 -0.78 0.02 l-2.84 0 z M76.25999999999999 14.620000000000001 l0.8 -0.02 l1.46 0 q0.1 0 0.35 0.01 t0.37 0.01 l-0.34 -1.24 q-0.48 -1.68 -1.1 -4.12 l-0.12 0 q-0.16 0.86 -0.96 3.82 z M95.56 10.56 q0 0.66 -0.2 1.25 t-0.53 1.06 t-0.78 0.82 t-0.93 0.53 q1.04 0.38 1.54 1.84 l0.6 1.7 q0.34 1 1 1.48 q-0.3 0.4 -0.9 0.67 t-1.32 0.27 t-1.12 -0.41 t-0.74 -1.43 l-0.72 -2.1 q-0.22 -0.6 -0.59 -0.92 t-1.11 -0.32 l-0.82 0 l0 5 q-0.64 0.12 -1.6 0.12 t-1.58 -0.12 l0 -13.56 l0.14 -0.14 q1.74 -0.04 2.93 -0.06 t1.87 -0.02 q1.1 0 2 0.27 t1.53 0.81 t0.98 1.36 t0.35 1.9 z M88.94 8.62 l0 3.92 q0.9 0 1.54 -0.03 t1.03 -0.24 t0.59 -0.59 t0.2 -1.1 q0 -1.94 -1.88 -1.94 l-0.83 0 t-0.65 -0.02 z M101.19999999999999 15.96 l-0.02 1.44 l0 0.02 q0.92 -0.04 1.48 -0.04 l4.64 0 q0 0.74 -0.06 1.14 q-0.24 1.54 -2.04 1.54 l-5.32 0 q-0.86 0 -1.35 -0.5 t-0.49 -1.36 l0 -11.72 l0.14 -0.14 l8.62 0 q0.12 0.58 0.12 1.26 t-0.28 1.42 l-5.46 0 l0.02 1.44 l0 1.4 q0.52 -0.02 1.36 -0.02 l3.06 0 q0.18 0.56 0.18 1.28 t-0.18 1.32 l-4.42 0 l0 1.52 z"
    ></path>
  </g>
</svg>
