<svg
  xmlns="http://www.w3.org/2000/svg"
  width="428.5652599251963"
  height="435.59375"
  viewBox="0 0 312.5 317.6250144464802"
>
  <g
    id="small-logo-heart"
    featurekey="symbolFeature-0"
    transform="matrix(1.0139788784313033,0,0,1.0139788784313033,-0.6992532424858635,-23.92888269386412)"
    fill="#51ADE2"
  >
    <g>
      <path
        d="M97.066,49.294H84.667c-0.919,0-1.745,0.56-2.085,1.412l-1.541,3.857l-8.542-21.378c-0.34-0.853-1.166-1.412-2.084-1.412   c-0.919,0-1.744,0.559-2.085,1.412l-6.436,16.109H53.06c2.014-5.625,2.044-11.745-0.042-16.634c-1.81-4.24-4.981-7.124-9.169-8.34   c-1.649-0.478-3.265-0.721-4.804-0.721c-5.719,0-9.354,3.237-11.41,5.988c-2.057-2.751-5.691-5.988-11.411-5.988   c-1.539,0-3.155,0.243-4.804,0.722c-4.188,1.215-7.358,4.1-9.168,8.339c-2.501,5.861-1.971,13.493,1.386,19.919   c5.525,10.572,21.96,22.861,22.657,23.38c0.398,0.295,0.868,0.442,1.339,0.442c0.471,0,0.941-0.147,1.339-0.442   c0.671-0.499,15.909-11.895,21.982-22.175h12.46c0.918,0,1.744-0.56,2.085-1.412l4.915-12.303l8.542,21.379   c0.341,0.853,1.166,1.412,2.085,1.412c0.918,0,1.743-0.56,2.085-1.412l3.061-7.664h10.879c1.239,0,2.244-1.005,2.244-2.245   S98.306,49.294,97.066,49.294z M27.634,71.325C23.635,68.192,11.806,58.516,7.617,50.5C4.91,45.316,4.425,39.006,6.381,34.422   c0.881-2.064,2.688-4.744,6.291-5.791c1.242-0.36,2.437-0.543,3.552-0.543c6.129,0,8.861,5.655,9.347,6.789   c0.354,0.825,1.166,1.361,2.064,1.361s1.71-0.536,2.064-1.361c0.485-1.134,3.217-6.789,9.346-6.789c1.115,0,2.31,0.183,3.551,0.543   c3.604,1.047,5.411,3.727,6.291,5.791c1.958,4.583,1.472,10.894-1.235,16.077C43.462,58.516,31.633,68.192,27.634,71.325z"
      ></path>
    </g>
  </g>
</svg>
